<?xml version="1.0" encoding="UTF-8" standalone="no"?>
<!DOCTYPE svg PUBLIC "-//W3C//DTD SVG 1.1//EN"
 "http://www.w3.org/Graphics/SVG/1.1/DTD/svg11.dtd">
<!-- Generated by graphviz version 2.40.1 (20161225.0304)
 -->
<!-- Title: life_cycle Pages: 1 -->
<svg width="436pt" height="254pt"
 viewBox="0.00 0.00 436.00 254.00" xmlns="http://www.w3.org/2000/svg" xmlns:xlink="http://www.w3.org/1999/xlink">
<g id="graph0" class="graph" transform="scale(1 1) rotate(0) translate(4 250)">
<title>life_cycle</title>
<polygon fill="#ffffff" stroke="transparent" points="-4,4 -4,-250 432,-250 432,4 -4,4"/>
<g id="clust1" class="cluster">
<title>cluster_0</title>
<polygon fill="none" stroke="#ec811b" points="8,-8 8,-238 60,-238 60,-8 8,-8"/>
<text text-anchor="middle" x="34" y="-225.2" font-family="Fira Sans" font-size="11.00" fill="#23373b">Exit</text>
</g>
<g id="clust2" class="cluster">
<title>cluster_1</title>
<polygon fill="none" stroke="#ec811b" points="368,-87 368,-238 420,-238 420,-87 368,-87"/>
<text text-anchor="middle" x="394" y="-225.2" font-family="Fira Sans" font-size="11.00" fill="#23373b">Entry</text>
</g>
<!-- 6 -->
<g id="node1" class="node">
<title>6</title>
<ellipse fill="none" stroke="#23373b" cx="34" cy="-34" rx="18" ry="18"/>
<text text-anchor="middle" x="34" y="-31.2" font-family="Fira Sans" font-size="11.00" fill="#23373b">6</text>
</g>
<!-- 5 -->
<g id="node8" class="node">
<title>5</title>
<ellipse fill="none" stroke="#23373b" cx="250" cy="-32" rx="18" ry="18"/>
<text text-anchor="middle" x="250" y="-29.2" font-family="Fira Sans" font-size="11.00" fill="#23373b">5</text>
</g>
<!-- 6&#45;&gt;5 -->
<g id="edge3" class="edge">
<title>6&#45;&gt;5</title>
<path fill="none" stroke="#23373b" d="M52.0445,-33.8329C89.6062,-33.4851 176.4459,-32.6811 221.5897,-32.2631"/>
<polygon fill="#23373b" stroke="#23373b" points="221.8878,-35.7605 231.8549,-32.168 221.8229,-28.7608 221.8878,-35.7605"/>
</g>
<!-- 8 -->
<g id="node2" class="node">
<title>8</title>
<ellipse fill="none" stroke="#23373b" cx="34" cy="-192" rx="18" ry="18"/>
<text text-anchor="middle" x="34" y="-189.2" font-family="Fira Sans" font-size="11.00" fill="#23373b">8</text>
</g>
<!-- 7 -->
<g id="node6" class="node">
<title>7</title>
<ellipse fill="none" stroke="#23373b" cx="178" cy="-192" rx="18" ry="18"/>
<text text-anchor="middle" x="178" y="-189.2" font-family="Fira Sans" font-size="11.00" fill="#23373b">7</text>
</g>
<!-- 8&#45;&gt;7 -->
<g id="edge1" class="edge">
<title>8&#45;&gt;7</title>
<path fill="none" stroke="#23373b" d="M52.2377,-192C76.799,-192 120.7526,-192 149.6459,-192"/>
<polygon fill="#23373b" stroke="#23373b" points="149.9104,-195.5001 159.9104,-192 149.9103,-188.5001 149.9104,-195.5001"/>
</g>
<!-- 14 -->
<g id="node3" class="node">
<title>14</title>
<ellipse fill="none" stroke="#23373b" cx="34" cy="-113" rx="18" ry="18"/>
<text text-anchor="middle" x="34" y="-110.2" font-family="Fira Sans" font-size="11.00" fill="#23373b">14</text>
</g>
<!-- 13 -->
<g id="node11" class="node">
<title>13</title>
<ellipse fill="none" stroke="#23373b" cx="106" cy="-113" rx="18" ry="18"/>
<text text-anchor="middle" x="106" y="-110.2" font-family="Fira Sans" font-size="11.00" fill="#23373b">13</text>
</g>
<!-- 14&#45;&gt;13 -->
<g id="edge8" class="edge">
<title>14&#45;&gt;13</title>
<path fill="none" stroke="#23373b" d="M52.1686,-113C59.869,-113 69.0257,-113 77.5834,-113"/>
<polygon fill="#23373b" stroke="#23373b" points="77.5868,-116.5001 87.5867,-113 77.5867,-109.5001 77.5868,-116.5001"/>
</g>
<!-- 1 -->
<g id="node4" class="node">
<title>1</title>
<ellipse fill="none" stroke="#23373b" cx="394" cy="-192" rx="18" ry="18"/>
<text text-anchor="middle" x="394" y="-189.2" font-family="Fira Sans" font-size="11.00" fill="#23373b">1</text>
</g>
<!-- 9 -->
<g id="node5" class="node">
<title>9</title>
<ellipse fill="none" stroke="#23373b" cx="394" cy="-113" rx="18" ry="18"/>
<text text-anchor="middle" x="394" y="-110.2" font-family="Fira Sans" font-size="11.00" fill="#23373b">9</text>
</g>
<!-- 3 -->
<g id="node7" class="node">
<title>3</title>
<ellipse fill="none" stroke="#23373b" cx="250" cy="-192" rx="18" ry="18"/>
<text text-anchor="middle" x="250" y="-189.2" font-family="Fira Sans" font-size="11.00" fill="#23373b">3</text>
</g>
<!-- 7&#45;&gt;3 -->
<g id="edge2" class="edge">
<title>7&#45;&gt;3</title>
<path fill="none" stroke="#23373b" d="M196.1686,-192C203.869,-192 213.0257,-192 221.5834,-192"/>
<polygon fill="#23373b" stroke="#23373b" points="221.5868,-195.5001 231.5867,-192 221.5867,-188.5001 221.5868,-195.5001"/>
</g>
<!-- 2 -->
<g id="node10" class="node">
<title>2</title>
<ellipse fill="none" stroke="#23373b" cx="322" cy="-192" rx="18" ry="18"/>
<text text-anchor="middle" x="322" y="-189.2" font-family="Fira Sans" font-size="11.00" fill="#23373b">2</text>
</g>
<!-- 3&#45;&gt;2 -->
<g id="edge6" class="edge">
<title>3&#45;&gt;2</title>
<path fill="none" stroke="#23373b" d="M268.1686,-192C275.869,-192 285.0257,-192 293.5834,-192"/>
<polygon fill="#23373b" stroke="#23373b" points="293.5868,-195.5001 303.5867,-192 293.5867,-188.5001 293.5868,-195.5001"/>
</g>
<!-- 4 -->
<g id="node9" class="node">
<title>4</title>
<ellipse fill="none" stroke="#23373b" cx="322" cy="-33" rx="18" ry="18"/>
<text text-anchor="middle" x="322" y="-30.2" font-family="Fira Sans" font-size="11.00" fill="#23373b">4</text>
</g>
<!-- 5&#45;&gt;4 -->
<g id="edge4" class="edge">
<title>5&#45;&gt;4</title>
<path fill="none" stroke="#23373b" d="M268.1686,-32.2523C275.869,-32.3593 285.0257,-32.4865 293.5834,-32.6053"/>
<polygon fill="#23373b" stroke="#23373b" points="293.5391,-36.1049 303.5867,-32.7443 293.6363,-29.1056 293.5391,-36.1049"/>
</g>
<!-- 4&#45;&gt;9 -->
<g id="edge5" class="edge">
<title>4&#45;&gt;9</title>
<path fill="none" stroke="#23373b" d="M334.2138,-46.5709C345.385,-58.9833 362.0873,-77.5414 375.001,-91.8899"/>
<polygon fill="#23373b" stroke="#23373b" points="372.435,-94.2709 381.7263,-99.3625 377.6381,-89.5882 372.435,-94.2709"/>
</g>
<!-- 2&#45;&gt;1 -->
<g id="edge7" class="edge">
<title>2&#45;&gt;1</title>
<path fill="none" stroke="#23373b" d="M340.1686,-192C347.869,-192 357.0257,-192 365.5834,-192"/>
<polygon fill="#23373b" stroke="#23373b" points="365.5868,-195.5001 375.5867,-192 365.5867,-188.5001 365.5868,-195.5001"/>
</g>
<!-- 13&#45;&gt;7 -->
<g id="edge13" class="edge">
<title>13&#45;&gt;7</title>
<path fill="none" stroke="#23373b" d="M118.2138,-126.4013C129.2816,-138.545 145.7784,-156.6458 158.6413,-170.7592"/>
<polygon fill="#23373b" stroke="#23373b" points="156.4034,-173.4997 165.7263,-178.533 161.577,-168.7844 156.4034,-173.4997"/>
</g>
<!-- 12 -->
<g id="node12" class="node">
<title>12</title>
<ellipse fill="none" stroke="#23373b" cx="178" cy="-113" rx="18" ry="18"/>
<text text-anchor="middle" x="178" y="-110.2" font-family="Fira Sans" font-size="11.00" fill="#23373b">12</text>
</g>
<!-- 13&#45;&gt;12 -->
<g id="edge9" class="edge">
<title>13&#45;&gt;12</title>
<path fill="none" stroke="#23373b" d="M124.1686,-113C131.869,-113 141.0257,-113 149.5834,-113"/>
<polygon fill="#23373b" stroke="#23373b" points="149.5868,-116.5001 159.5867,-113 149.5867,-109.5001 149.5868,-116.5001"/>
</g>
<!-- 11 -->
<g id="node13" class="node">
<title>11</title>
<ellipse fill="none" stroke="#23373b" cx="250" cy="-113" rx="18" ry="18"/>
<text text-anchor="middle" x="250" y="-110.2" font-family="Fira Sans" font-size="11.00" fill="#23373b">11</text>
</g>
<!-- 12&#45;&gt;11 -->
<g id="edge10" class="edge">
<title>12&#45;&gt;11</title>
<path fill="none" stroke="#23373b" d="M196.1686,-113C203.869,-113 213.0257,-113 221.5834,-113"/>
<polygon fill="#23373b" stroke="#23373b" points="221.5868,-116.5001 231.5867,-113 221.5867,-109.5001 221.5868,-116.5001"/>
</g>
<!-- 10 -->
<g id="node14" class="node">
<title>10</title>
<ellipse fill="none" stroke="#23373b" cx="322" cy="-113" rx="18" ry="18"/>
<text text-anchor="middle" x="322" y="-110.2" font-family="Fira Sans" font-size="11.00" fill="#23373b">10</text>
</g>
<!-- 11&#45;&gt;10 -->
<g id="edge11" class="edge">
<title>11&#45;&gt;10</title>
<path fill="none" stroke="#23373b" d="M268.1686,-113C275.869,-113 285.0257,-113 293.5834,-113"/>
<polygon fill="#23373b" stroke="#23373b" points="293.5868,-116.5001 303.5867,-113 293.5867,-109.5001 293.5868,-116.5001"/>
</g>
<!-- 10&#45;&gt;9 -->
<g id="edge12" class="edge">
<title>10&#45;&gt;9</title>
<path fill="none" stroke="#23373b" d="M340.1686,-113C347.869,-113 357.0257,-113 365.5834,-113"/>
<polygon fill="#23373b" stroke="#23373b" points="365.5868,-116.5001 375.5867,-113 365.5867,-109.5001 365.5868,-116.5001"/>
</g>
</g>
</svg>
